<mxfile host="app.diagrams.net" modified="2022-03-24T16:43:07.163Z" agent="5.0 (Windows NT 10.0; Win64; x64) AppleWebKit/537.36 (KHTML, like Gecko) Chrome/99.0.4844.82 Safari/537.36" etag="BNyULt__zXYRBsmlbJUZ" version="17.2.1" type="github">
  <diagram id="R2lEEEUBdFMjLlhIrx00" name="Page-1">
    <mxGraphModel dx="2272" dy="786" grid="1" gridSize="10" guides="1" tooltips="1" connect="1" arrows="1" fold="1" page="1" pageScale="1" pageWidth="850" pageHeight="1100" math="0" shadow="0" extFonts="Permanent Marker^https://fonts.googleapis.com/css?family=Permanent+Marker">
      <root>
        <mxCell id="0" />
        <mxCell id="1" parent="0" />
        <mxCell id="fPmA_7E6df5P6u3da4ex-2" value="&lt;font face=&quot;Times New Roman&quot; size=&quot;1&quot;&gt;&lt;b style=&quot;font-size: 14px&quot;&gt;ADMITTED IN&lt;/b&gt;&lt;/font&gt;" style="shape=rhombus;perimeter=rhombusPerimeter;whiteSpace=wrap;html=1;align=center;" vertex="1" parent="1">
          <mxGeometry x="320" y="140" width="180" height="70" as="geometry" />
        </mxCell>
        <mxCell id="fPmA_7E6df5P6u3da4ex-4" value="" style="endArrow=none;html=1;rounded=0;fontFamily=Times New Roman;fontSize=14;entryX=0;entryY=0.5;entryDx=0;entryDy=0;" edge="1" parent="1">
          <mxGeometry relative="1" as="geometry">
            <mxPoint x="210" y="174.5" as="sourcePoint" />
            <mxPoint x="320" y="174.5" as="targetPoint" />
          </mxGeometry>
        </mxCell>
        <mxCell id="fPmA_7E6df5P6u3da4ex-5" value="&lt;b style=&quot;font-size: 16px;&quot;&gt;&lt;font style=&quot;font-size: 16px;&quot;&gt;N&lt;/font&gt;&lt;/b&gt;" style="resizable=0;html=1;align=right;verticalAlign=bottom;fontFamily=Times New Roman;fontSize=16;" connectable="0" vertex="1" parent="fPmA_7E6df5P6u3da4ex-4">
          <mxGeometry x="1" relative="1" as="geometry">
            <mxPoint x="-40" y="1" as="offset" />
          </mxGeometry>
        </mxCell>
        <mxCell id="fPmA_7E6df5P6u3da4ex-6" value="&lt;b&gt;PATIENT&lt;/b&gt;" style="whiteSpace=wrap;html=1;align=center;fontFamily=Times New Roman;fontSize=16;" vertex="1" parent="1">
          <mxGeometry x="110" y="155" width="100" height="40" as="geometry" />
        </mxCell>
        <mxCell id="fPmA_7E6df5P6u3da4ex-14" value="" style="endArrow=none;html=1;rounded=0;fontFamily=Times New Roman;fontSize=16;exitX=0.5;exitY=0;exitDx=0;exitDy=0;" edge="1" parent="1" source="fPmA_7E6df5P6u3da4ex-6" target="fPmA_7E6df5P6u3da4ex-15">
          <mxGeometry relative="1" as="geometry">
            <mxPoint x="340" y="400" as="sourcePoint" />
            <mxPoint x="160" y="90" as="targetPoint" />
          </mxGeometry>
        </mxCell>
        <mxCell id="fPmA_7E6df5P6u3da4ex-15" value="&lt;b&gt;PATIENT NAME&lt;/b&gt;" style="ellipse;whiteSpace=wrap;html=1;align=center;fontFamily=Times New Roman;fontSize=16;" vertex="1" parent="1">
          <mxGeometry x="100" y="30" width="130" height="60" as="geometry" />
        </mxCell>
        <mxCell id="fPmA_7E6df5P6u3da4ex-16" value="" style="endArrow=none;html=1;rounded=0;fontFamily=Times New Roman;fontSize=16;exitX=0.88;exitY=-0.025;exitDx=0;exitDy=0;exitPerimeter=0;entryX=0.35;entryY=1.017;entryDx=0;entryDy=0;entryPerimeter=0;" edge="1" parent="1" source="fPmA_7E6df5P6u3da4ex-6" target="fPmA_7E6df5P6u3da4ex-17">
          <mxGeometry relative="1" as="geometry">
            <mxPoint x="340" y="390" as="sourcePoint" />
            <mxPoint x="250" y="100" as="targetPoint" />
          </mxGeometry>
        </mxCell>
        <mxCell id="fPmA_7E6df5P6u3da4ex-17" value="&lt;b&gt;PATIENT ID&lt;/b&gt;" style="ellipse;whiteSpace=wrap;html=1;align=center;fontFamily=Times New Roman;fontSize=16;" vertex="1" parent="1">
          <mxGeometry x="240" y="10" width="130" height="60" as="geometry" />
        </mxCell>
        <mxCell id="fPmA_7E6df5P6u3da4ex-18" value="" style="endArrow=none;html=1;rounded=0;fontFamily=Times New Roman;fontSize=16;exitX=0.25;exitY=0;exitDx=0;exitDy=0;" edge="1" parent="1" source="fPmA_7E6df5P6u3da4ex-6" target="fPmA_7E6df5P6u3da4ex-20">
          <mxGeometry relative="1" as="geometry">
            <mxPoint x="340" y="400" as="sourcePoint" />
            <mxPoint x="50" y="110" as="targetPoint" />
          </mxGeometry>
        </mxCell>
        <mxCell id="fPmA_7E6df5P6u3da4ex-20" value="&lt;b&gt;PATIENT DIAGNOSIS&lt;/b&gt;" style="ellipse;whiteSpace=wrap;html=1;align=center;fontFamily=Times New Roman;fontSize=16;" vertex="1" parent="1">
          <mxGeometry x="-60" y="80" width="160" height="50" as="geometry" />
        </mxCell>
        <mxCell id="fPmA_7E6df5P6u3da4ex-21" value="&lt;b&gt;PATIENT ADDRESS&lt;/b&gt;" style="ellipse;whiteSpace=wrap;html=1;align=center;fontFamily=Times New Roman;fontSize=16;" vertex="1" parent="1">
          <mxGeometry x="-90" y="240" width="160" height="50" as="geometry" />
        </mxCell>
        <mxCell id="fPmA_7E6df5P6u3da4ex-22" value="" style="endArrow=none;html=1;rounded=0;fontFamily=Times New Roman;fontSize=16;exitX=0.25;exitY=1;exitDx=0;exitDy=0;" edge="1" parent="1" source="fPmA_7E6df5P6u3da4ex-6" target="fPmA_7E6df5P6u3da4ex-21">
          <mxGeometry relative="1" as="geometry">
            <mxPoint x="145" y="165" as="sourcePoint" />
            <mxPoint x="76.69088385220584" y="135.30038428356772" as="targetPoint" />
          </mxGeometry>
        </mxCell>
        <mxCell id="fPmA_7E6df5P6u3da4ex-24" value="" style="shape=rhombus;perimeter=rhombusPerimeter;whiteSpace=wrap;html=1;align=center;fontFamily=Times New Roman;fontSize=16;" vertex="1" parent="1">
          <mxGeometry x="80" y="330" width="160" height="90" as="geometry" />
        </mxCell>
        <mxCell id="fPmA_7E6df5P6u3da4ex-25" value="HAS NEW/EXISTING" style="text;strokeColor=none;fillColor=none;spacingLeft=4;spacingRight=4;overflow=hidden;rotatable=0;points=[[0,0.5],[1,0.5]];portConstraint=eastwest;fontSize=14;fontFamily=Times New Roman;fontStyle=1;align=center;whiteSpace=wrap;" vertex="1" parent="1">
          <mxGeometry x="100" y="350" width="120" height="70" as="geometry" />
        </mxCell>
        <mxCell id="fPmA_7E6df5P6u3da4ex-27" value="&lt;b&gt;MEDICAL RECORD&amp;nbsp;&lt;/b&gt;" style="whiteSpace=wrap;html=1;align=center;fontFamily=Times New Roman;fontSize=16;" vertex="1" parent="1">
          <mxGeometry x="80" y="560" width="170" height="40" as="geometry" />
        </mxCell>
        <mxCell id="fPmA_7E6df5P6u3da4ex-28" value="" style="endArrow=none;html=1;rounded=0;fontFamily=Times New Roman;fontSize=14;exitX=0.2;exitY=-0.025;exitDx=0;exitDy=0;exitPerimeter=0;" edge="1" parent="1" source="fPmA_7E6df5P6u3da4ex-27">
          <mxGeometry relative="1" as="geometry">
            <mxPoint x="340" y="390" as="sourcePoint" />
            <mxPoint x="10" y="510" as="targetPoint" />
          </mxGeometry>
        </mxCell>
        <mxCell id="fPmA_7E6df5P6u3da4ex-29" value="&lt;b&gt;RECORD ID&lt;/b&gt;" style="ellipse;whiteSpace=wrap;html=1;align=center;fontFamily=Times New Roman;fontSize=16;" vertex="1" parent="1">
          <mxGeometry x="-80" y="460" width="160" height="50" as="geometry" />
        </mxCell>
        <mxCell id="fPmA_7E6df5P6u3da4ex-30" value="" style="endArrow=none;html=1;rounded=0;fontFamily=Times New Roman;fontSize=14;exitX=0.25;exitY=1;exitDx=0;exitDy=0;" edge="1" parent="1" source="fPmA_7E6df5P6u3da4ex-27">
          <mxGeometry relative="1" as="geometry">
            <mxPoint x="124" y="569" as="sourcePoint" />
            <mxPoint x="60" y="640" as="targetPoint" />
          </mxGeometry>
        </mxCell>
        <mxCell id="fPmA_7E6df5P6u3da4ex-31" value="&lt;b&gt;DATE OF ADMISSION&lt;/b&gt;" style="ellipse;whiteSpace=wrap;html=1;align=center;fontFamily=Times New Roman;fontSize=16;" vertex="1" parent="1">
          <mxGeometry x="-30" y="640" width="160" height="50" as="geometry" />
        </mxCell>
        <mxCell id="fPmA_7E6df5P6u3da4ex-32" value="" style="endArrow=none;html=1;rounded=0;fontFamily=Times New Roman;fontSize=14;entryX=0.5;entryY=0;entryDx=0;entryDy=0;" edge="1" parent="1" target="fPmA_7E6df5P6u3da4ex-33">
          <mxGeometry relative="1" as="geometry">
            <mxPoint x="200" y="600" as="sourcePoint" />
            <mxPoint x="220" y="640" as="targetPoint" />
          </mxGeometry>
        </mxCell>
        <mxCell id="fPmA_7E6df5P6u3da4ex-33" value="&lt;b&gt;PROBLEM/ISSUE&lt;/b&gt;" style="ellipse;whiteSpace=wrap;html=1;align=center;fontFamily=Times New Roman;fontSize=16;" vertex="1" parent="1">
          <mxGeometry x="180" y="640" width="160" height="50" as="geometry" />
        </mxCell>
        <mxCell id="fPmA_7E6df5P6u3da4ex-35" value="" style="endArrow=none;html=1;rounded=0;fontFamily=Times New Roman;fontSize=14;exitX=1;exitY=0.5;exitDx=0;exitDy=0;" edge="1" parent="1" source="fPmA_7E6df5P6u3da4ex-2">
          <mxGeometry relative="1" as="geometry">
            <mxPoint x="340" y="400" as="sourcePoint" />
            <mxPoint x="600" y="175" as="targetPoint" />
          </mxGeometry>
        </mxCell>
        <mxCell id="fPmA_7E6df5P6u3da4ex-36" value="1" style="resizable=0;html=1;align=center;verticalAlign=bottom;fontFamily=Times New Roman;fontSize=16;fontStyle=1" connectable="0" vertex="1" parent="fPmA_7E6df5P6u3da4ex-35">
          <mxGeometry x="1" relative="1" as="geometry">
            <mxPoint x="-50" as="offset" />
          </mxGeometry>
        </mxCell>
        <mxCell id="fPmA_7E6df5P6u3da4ex-37" value="&lt;b&gt;HOSPITAL&lt;/b&gt;" style="whiteSpace=wrap;html=1;align=center;fontFamily=Times New Roman;fontSize=16;" vertex="1" parent="1">
          <mxGeometry x="600" y="155" width="100" height="40" as="geometry" />
        </mxCell>
        <mxCell id="fPmA_7E6df5P6u3da4ex-38" value="" style="endArrow=none;html=1;rounded=0;fontFamily=Times New Roman;fontSize=14;exitX=0.5;exitY=1;exitDx=0;exitDy=0;entryX=0.5;entryY=0;entryDx=0;entryDy=0;" edge="1" parent="1" source="fPmA_7E6df5P6u3da4ex-6" target="fPmA_7E6df5P6u3da4ex-24">
          <mxGeometry relative="1" as="geometry">
            <mxPoint x="230" y="310" as="sourcePoint" />
            <mxPoint x="330" y="310" as="targetPoint" />
          </mxGeometry>
        </mxCell>
        <mxCell id="fPmA_7E6df5P6u3da4ex-39" value="1" style="resizable=0;html=1;align=center;verticalAlign=bottom;fontFamily=Times New Roman;fontSize=16;fontStyle=1" connectable="0" vertex="1" parent="fPmA_7E6df5P6u3da4ex-38">
          <mxGeometry x="1" relative="1" as="geometry">
            <mxPoint x="-10" y="-10" as="offset" />
          </mxGeometry>
        </mxCell>
        <mxCell id="fPmA_7E6df5P6u3da4ex-40" value="" style="endArrow=none;html=1;rounded=0;fontFamily=Times New Roman;fontSize=14;" edge="1" parent="1">
          <mxGeometry relative="1" as="geometry">
            <mxPoint x="160" y="420" as="sourcePoint" />
            <mxPoint x="160" y="560" as="targetPoint" />
          </mxGeometry>
        </mxCell>
        <mxCell id="fPmA_7E6df5P6u3da4ex-41" value="&lt;b style=&quot;font-size: 16px;&quot;&gt;&lt;font style=&quot;font-size: 16px;&quot;&gt;N&lt;/font&gt;&lt;/b&gt;" style="resizable=0;html=1;align=right;verticalAlign=bottom;fontFamily=Times New Roman;fontSize=16;" connectable="0" vertex="1" parent="fPmA_7E6df5P6u3da4ex-40">
          <mxGeometry x="1" relative="1" as="geometry">
            <mxPoint x="-10" y="-70" as="offset" />
          </mxGeometry>
        </mxCell>
        <mxCell id="fPmA_7E6df5P6u3da4ex-42" value="&lt;b&gt;HOSPITAL NAME&lt;/b&gt;" style="ellipse;whiteSpace=wrap;html=1;align=center;fontFamily=Times New Roman;fontSize=16;" vertex="1" parent="1">
          <mxGeometry x="440" y="20" width="160" height="50" as="geometry" />
        </mxCell>
        <mxCell id="fPmA_7E6df5P6u3da4ex-43" value="" style="endArrow=none;html=1;rounded=0;fontFamily=Times New Roman;fontSize=16;exitX=0.12;exitY=0.025;exitDx=0;exitDy=0;entryX=0.5;entryY=1;entryDx=0;entryDy=0;exitPerimeter=0;" edge="1" parent="1" source="fPmA_7E6df5P6u3da4ex-37" target="fPmA_7E6df5P6u3da4ex-42">
          <mxGeometry relative="1" as="geometry">
            <mxPoint x="145" y="165" as="sourcePoint" />
            <mxPoint x="76.69088385220584" y="135.30038428356772" as="targetPoint" />
          </mxGeometry>
        </mxCell>
        <mxCell id="fPmA_7E6df5P6u3da4ex-44" value="&lt;b&gt;HOSPITAL ID&lt;/b&gt;" style="ellipse;whiteSpace=wrap;html=1;align=center;fontFamily=Times New Roman;fontSize=16;" vertex="1" parent="1">
          <mxGeometry x="620" y="20" width="160" height="50" as="geometry" />
        </mxCell>
        <mxCell id="fPmA_7E6df5P6u3da4ex-45" value="" style="endArrow=none;html=1;rounded=0;fontFamily=Times New Roman;fontSize=16;exitX=0.5;exitY=0;exitDx=0;exitDy=0;entryX=0.5;entryY=1;entryDx=0;entryDy=0;" edge="1" parent="1" source="fPmA_7E6df5P6u3da4ex-37" target="fPmA_7E6df5P6u3da4ex-44">
          <mxGeometry relative="1" as="geometry">
            <mxPoint x="622" y="166" as="sourcePoint" />
            <mxPoint x="530" y="80" as="targetPoint" />
          </mxGeometry>
        </mxCell>
        <mxCell id="fPmA_7E6df5P6u3da4ex-46" value="&lt;b&gt;HOSPITAL ADDRESS&lt;/b&gt;" style="ellipse;whiteSpace=wrap;html=1;align=center;fontFamily=Times New Roman;fontSize=16;" vertex="1" parent="1">
          <mxGeometry x="740" y="90" width="160" height="50" as="geometry" />
        </mxCell>
        <mxCell id="fPmA_7E6df5P6u3da4ex-47" value="" style="endArrow=none;html=1;rounded=0;fontFamily=Times New Roman;fontSize=16;exitX=1;exitY=0.5;exitDx=0;exitDy=0;entryX=0.5;entryY=1;entryDx=0;entryDy=0;" edge="1" parent="1" source="fPmA_7E6df5P6u3da4ex-37" target="fPmA_7E6df5P6u3da4ex-46">
          <mxGeometry relative="1" as="geometry">
            <mxPoint x="660" y="165" as="sourcePoint" />
            <mxPoint x="710" y="80" as="targetPoint" />
          </mxGeometry>
        </mxCell>
        <mxCell id="fPmA_7E6df5P6u3da4ex-48" value="&lt;b&gt;HOSPITAL CITY&lt;/b&gt;" style="ellipse;whiteSpace=wrap;html=1;align=center;fontFamily=Times New Roman;fontSize=16;" vertex="1" parent="1">
          <mxGeometry x="710" y="230" width="160" height="50" as="geometry" />
        </mxCell>
        <mxCell id="fPmA_7E6df5P6u3da4ex-49" value="" style="endArrow=none;html=1;rounded=0;fontFamily=Times New Roman;fontSize=16;exitX=0.75;exitY=1;exitDx=0;exitDy=0;entryX=0.5;entryY=0;entryDx=0;entryDy=0;" edge="1" parent="1" source="fPmA_7E6df5P6u3da4ex-37" target="fPmA_7E6df5P6u3da4ex-48">
          <mxGeometry relative="1" as="geometry">
            <mxPoint x="710" y="185" as="sourcePoint" />
            <mxPoint x="830" y="150" as="targetPoint" />
          </mxGeometry>
        </mxCell>
        <mxCell id="fPmA_7E6df5P6u3da4ex-50" value="" style="endArrow=none;html=1;rounded=0;fontFamily=Times New Roman;fontSize=14;exitX=0.5;exitY=1;exitDx=0;exitDy=0;entryX=0.5;entryY=0;entryDx=0;entryDy=0;" edge="1" parent="1">
          <mxGeometry relative="1" as="geometry">
            <mxPoint x="649.5" y="195" as="sourcePoint" />
            <mxPoint x="649.5" y="330" as="targetPoint" />
          </mxGeometry>
        </mxCell>
        <mxCell id="fPmA_7E6df5P6u3da4ex-51" value="1" style="resizable=0;html=1;align=center;verticalAlign=bottom;fontFamily=Times New Roman;fontSize=16;fontStyle=1" connectable="0" vertex="1" parent="fPmA_7E6df5P6u3da4ex-50">
          <mxGeometry x="1" relative="1" as="geometry">
            <mxPoint x="-10" y="-10" as="offset" />
          </mxGeometry>
        </mxCell>
        <mxCell id="fPmA_7E6df5P6u3da4ex-52" value="" style="shape=rhombus;perimeter=rhombusPerimeter;whiteSpace=wrap;html=1;align=center;fontFamily=Times New Roman;fontSize=16;" vertex="1" parent="1">
          <mxGeometry x="570" y="330" width="160" height="90" as="geometry" />
        </mxCell>
        <mxCell id="fPmA_7E6df5P6u3da4ex-53" value="HAS &#xa;EXPERIENCED/&#xa;YOUNG" style="text;strokeColor=none;fillColor=none;spacingLeft=4;spacingRight=4;overflow=hidden;rotatable=0;points=[[0,0.5],[1,0.5]];portConstraint=eastwest;fontSize=14;fontFamily=Times New Roman;fontStyle=1;align=center;whiteSpace=wrap;" vertex="1" parent="1">
          <mxGeometry x="582.5" y="340" width="135" height="70" as="geometry" />
        </mxCell>
        <mxCell id="fPmA_7E6df5P6u3da4ex-54" value="" style="endArrow=none;html=1;rounded=0;fontFamily=Times New Roman;fontSize=14;" edge="1" parent="1">
          <mxGeometry relative="1" as="geometry">
            <mxPoint x="649.5" y="420" as="sourcePoint" />
            <mxPoint x="649.5" y="560" as="targetPoint" />
          </mxGeometry>
        </mxCell>
        <mxCell id="fPmA_7E6df5P6u3da4ex-55" value="&lt;b style=&quot;font-size: 16px;&quot;&gt;&lt;font style=&quot;font-size: 16px;&quot;&gt;N&lt;/font&gt;&lt;/b&gt;" style="resizable=0;html=1;align=right;verticalAlign=bottom;fontFamily=Times New Roman;fontSize=16;" connectable="0" vertex="1" parent="fPmA_7E6df5P6u3da4ex-54">
          <mxGeometry x="1" relative="1" as="geometry">
            <mxPoint x="-10" y="-70" as="offset" />
          </mxGeometry>
        </mxCell>
        <mxCell id="fPmA_7E6df5P6u3da4ex-56" value="&lt;b&gt;DOCTOR&lt;/b&gt;" style="whiteSpace=wrap;html=1;align=center;fontFamily=Times New Roman;fontSize=16;" vertex="1" parent="1">
          <mxGeometry x="560" y="560" width="170" height="40" as="geometry" />
        </mxCell>
        <mxCell id="fPmA_7E6df5P6u3da4ex-57" value="&lt;b&gt;SALARY&lt;/b&gt;" style="ellipse;whiteSpace=wrap;html=1;align=center;fontFamily=Times New Roman;fontSize=16;" vertex="1" parent="1">
          <mxGeometry x="410" y="440" width="160" height="50" as="geometry" />
        </mxCell>
        <mxCell id="fPmA_7E6df5P6u3da4ex-58" value="" style="endArrow=none;html=1;rounded=0;fontFamily=Times New Roman;fontSize=14;exitX=0.25;exitY=0;exitDx=0;exitDy=0;entryX=0.544;entryY=1.02;entryDx=0;entryDy=0;entryPerimeter=0;" edge="1" parent="1" source="fPmA_7E6df5P6u3da4ex-56" target="fPmA_7E6df5P6u3da4ex-57">
          <mxGeometry relative="1" as="geometry">
            <mxPoint x="124" y="569" as="sourcePoint" />
            <mxPoint x="20" y="520" as="targetPoint" />
          </mxGeometry>
        </mxCell>
        <mxCell id="fPmA_7E6df5P6u3da4ex-59" value="&lt;b&gt;QUALIFICATION&lt;/b&gt;" style="ellipse;whiteSpace=wrap;html=1;align=center;fontFamily=Times New Roman;fontSize=16;" vertex="1" parent="1">
          <mxGeometry x="425" y="650" width="160" height="50" as="geometry" />
        </mxCell>
        <mxCell id="fPmA_7E6df5P6u3da4ex-60" value="" style="endArrow=none;html=1;rounded=0;fontFamily=Times New Roman;fontSize=14;exitX=0.25;exitY=1;exitDx=0;exitDy=0;entryX=0.5;entryY=0;entryDx=0;entryDy=0;" edge="1" parent="1" source="fPmA_7E6df5P6u3da4ex-56" target="fPmA_7E6df5P6u3da4ex-59">
          <mxGeometry relative="1" as="geometry">
            <mxPoint x="612.5" y="570" as="sourcePoint" />
            <mxPoint x="507.03999999999996" y="501" as="targetPoint" />
          </mxGeometry>
        </mxCell>
        <mxCell id="fPmA_7E6df5P6u3da4ex-61" value="&lt;b&gt;DOCTOR NAME&lt;/b&gt;" style="ellipse;whiteSpace=wrap;html=1;align=center;fontFamily=Times New Roman;fontSize=16;" vertex="1" parent="1">
          <mxGeometry x="680" y="650" width="160" height="50" as="geometry" />
        </mxCell>
        <mxCell id="fPmA_7E6df5P6u3da4ex-62" value="" style="endArrow=none;html=1;rounded=0;fontFamily=Times New Roman;fontSize=14;exitX=0.688;exitY=1;exitDx=0;exitDy=0;entryX=0.5;entryY=0;entryDx=0;entryDy=0;exitPerimeter=0;" edge="1" parent="1" source="fPmA_7E6df5P6u3da4ex-56" target="fPmA_7E6df5P6u3da4ex-61">
          <mxGeometry relative="1" as="geometry">
            <mxPoint x="612.5" y="610" as="sourcePoint" />
            <mxPoint x="515" y="660" as="targetPoint" />
          </mxGeometry>
        </mxCell>
        <mxCell id="fPmA_7E6df5P6u3da4ex-63" value="&lt;b&gt;DOCTOR ID&lt;/b&gt;" style="ellipse;whiteSpace=wrap;html=1;align=center;fontFamily=Times New Roman;fontSize=16;" vertex="1" parent="1">
          <mxGeometry x="700" y="450" width="160" height="50" as="geometry" />
        </mxCell>
        <mxCell id="fPmA_7E6df5P6u3da4ex-64" value="" style="endArrow=none;html=1;rounded=0;fontFamily=Times New Roman;fontSize=14;entryX=0.5;entryY=1;entryDx=0;entryDy=0;exitX=0.75;exitY=0;exitDx=0;exitDy=0;" edge="1" parent="1" source="fPmA_7E6df5P6u3da4ex-56" target="fPmA_7E6df5P6u3da4ex-63">
          <mxGeometry relative="1" as="geometry">
            <mxPoint x="686.96" y="610" as="sourcePoint" />
            <mxPoint x="770" y="660" as="targetPoint" />
          </mxGeometry>
        </mxCell>
      </root>
    </mxGraphModel>
  </diagram>
</mxfile>
